# xmcd
#
# Track frame offsets: 
#        150
#        15558
#        30638
#        44833
#        62636
#        71166
#        81934
#        92644
#        106624
#        120574
#        132101
#        143454
#        155086
#        171431
#        184723
#        198032
#
# Disc length: 2782 seconds
#
# Revision: 0
# Processed by: cddbd v1.5.2PL0 Copyright (c) Steve Scherf et al.
# Submitted via: ExactAudioCopy v0.99pb5
#
DISCID=d40adc10
DTITLE=Veikko Lavi - Varis Ja Valtion Varatyömies CD2
DYEAR=1986
DGENRE=Oldies
TTITLE0=Nälkälinna (Humppa)
TTITLE1=Keltaiset Banaanit (Humppa)
TTITLE2=Miksi Poistuit Luotani (Tango)
TTITLE3=Pieni Kaupunki (Tango)
TTITLE4=Kesäilta Saimaalla (Humppa)
TTITLE5=Lentävä Hollantilainen (Humppa)
TTITLE6=Yön Varjot (Valssi)
TTITLE7=Kaipuuni Kaitainen Polku (Valssi)
TTITLE8=Aropaimen (Humppa)
TTITLE9=Julma Ikäluokka (Humppa)
TTITLE10=Sorsa Ja Ukko (Jenkka)
TTITLE11=Varis Ja Valtion Varatyömies (Jenkka)
TTITLE12=Inhoittavat Naapurit (Foxtrot)
TTITLE13=Laulajan Testamentti (Foxtrot)
TTITLE14=Mäkikotka (Humppa)
TTITLE15=Latujen Kuningatar (Polska)
EXTD=
EXTT0=
EXTT1=
EXTT2=
EXTT3=
EXTT4=
EXTT5=
EXTT6=
EXTT7=
EXTT8=
EXTT9=
EXTT10=
EXTT11=
EXTT12=
EXTT13=
EXTT14=
EXTT15=
PLAYORDER=
